<svg width="2118" height="1480" xmlns="http://www.w3.org/2000/svg" xmlns:xlink="http://www.w3.org/1999/xlink" xml:space="preserve" overflow="hidden"><defs><clipPath id="clip0"><rect x="192" y="96" width="2118" height="1480"/></clipPath></defs><g clip-path="url(#clip0)" transform="translate(-192 -96)"><path d="M4.58333-1.48515e-06 4.58369 1104.68-4.58298 1104.68-4.58333 1.48515e-06ZM20.001 1079.49 0.000359835 1113.77-20.0003 1079.49C-21.2758 1077.3-20.5372 1074.49-18.3507 1073.22-16.1642 1071.94-13.3578 1072.68-12.0823 1074.87L3.95934 1102.37-3.95863 1102.37 12.083 1074.87C13.3585 1072.68 16.1649 1071.94 18.3514 1073.22 20.5379 1074.49 21.2765 1077.3 20.001 1079.49Z" fill="#000000" fill-rule="nonzero" fill-opacity="1" transform="matrix(1 0 0 -1 1926.5 1381.25)"/><path d="M4.58333-1.48515e-06 4.58369 1104.68-4.58298 1104.68-4.58333 1.48515e-06ZM20.001 1079.49 0.000359835 1113.77-20.0003 1079.49C-21.2758 1077.3-20.5372 1074.49-18.3507 1073.22-16.1642 1071.94-13.3578 1072.68-12.0823 1074.87L3.95934 1102.37-3.95863 1102.37 12.083 1074.87C13.3585 1072.68 16.1649 1071.94 18.3514 1073.22 20.5379 1074.49 21.2765 1077.3 20.001 1079.49Z" fill="#000000" fill-rule="nonzero" fill-opacity="1" transform="matrix(1 0 0 -1 519.5 1381.25)"/><path d="M479.5 1329.92 2075.99 1329.92 2075.99 1339.08 479.5 1339.08ZM2050.81 1314.5 2085.1 1334.5 2050.81 1354.5C2048.62 1355.78 2045.82 1355.04 2044.54 1352.85 2043.27 1350.66 2044.01 1347.86 2046.19 1346.58L2073.69 1330.54 2073.69 1338.46 2046.19 1322.42C2044.01 1321.14 2043.27 1318.34 2044.54 1316.15 2045.82 1313.96 2048.62 1313.22 2050.81 1314.5Z" fill="#000000" fill-rule="nonzero" fill-opacity="1"/><text fill="#000000" fill-opacity="1" font-family="Arial,Arial_MSFontService,sans-serif" font-style="normal" font-variant="normal" font-weight="400" font-stretch="normal" font-size="64" text-anchor="start" direction="ltr" writing-mode="lr-tb" unicode-bidi="normal" text-decoration="none" transform="matrix(1 0 0 1 489.855 1443)">0%<tspan fill="#000000" fill-opacity="1" font-family="Arial,Arial_MSFontService,sans-serif" font-style="normal" font-variant="normal" font-weight="400" font-stretch="normal" font-size="64" text-anchor="start" direction="ltr" writing-mode="lr-tb" unicode-bidi="normal" text-decoration="none" x="-136.652" y="77">(Pure Liquid)</tspan><tspan fill="#000000" fill-opacity="1" font-family="Arial,Arial_MSFontService,sans-serif" font-style="normal" font-variant="normal" font-weight="400" font-stretch="normal" font-size="64" text-anchor="start" direction="ltr" writing-mode="lr-tb" unicode-bidi="normal" text-decoration="none" x="1394.47" y="0">100%</tspan><tspan fill="#000000" fill-opacity="1" font-family="Arial,Arial_MSFontService,sans-serif" font-style="normal" font-variant="normal" font-weight="400" font-stretch="normal" font-size="64" text-anchor="start" direction="ltr" writing-mode="lr-tb" unicode-bidi="normal" text-decoration="none" x="1286.19" y="77">(Pure Steam)</tspan><tspan fill="#000000" fill-opacity="1" font-family="Arial,Arial_MSFontService,sans-serif" font-style="normal" font-variant="normal" font-weight="400" font-stretch="normal" font-size="73" text-anchor="start" direction="ltr" writing-mode="lr-tb" unicode-bidi="normal" text-decoration="none" x="415.181" y="-1251">Constant T = T</tspan><tspan fill="#000000" fill-opacity="1" font-family="Arial,Arial_MSFontService,sans-serif" font-style="normal" font-variant="normal" font-weight="400" font-stretch="normal" font-size="49" text-anchor="start" direction="ltr" writing-mode="lr-tb" unicode-bidi="normal" text-decoration="none" x="902.733" y="-1234">b</tspan><tspan fill="#000000" fill-opacity="1" font-family="Arial,Arial_MSFontService,sans-serif" font-style="normal" font-variant="normal" font-weight="400" font-stretch="normal" font-size="73" text-anchor="start" direction="ltr" writing-mode="lr-tb" unicode-bidi="normal" text-decoration="none" x="929.661" y="-1251">, P</tspan></text><text fill="#000000" fill-opacity="1" font-family="Arial,Arial_MSFontService,sans-serif" font-style="normal" font-variant="normal" font-weight="400" font-stretch="normal" font-size="83" text-anchor="start" direction="ltr" writing-mode="lr-tb" unicode-bidi="normal" text-decoration="none" transform="matrix(-1.83697e-16 -1 1 -1.83697e-16 459.304 1229)">Magnitude of  Total G</text><path d="M1913.5 1339C1913.5 1329.89 1920.89 1322.5 1930 1322.5 1939.11 1322.5 1946.5 1329.89 1946.5 1339 1946.5 1348.11 1939.11 1355.5 1930 1355.5 1920.89 1355.5 1913.5 1348.11 1913.5 1339Z" stroke="#4F81BD" stroke-width="9.16667" stroke-linecap="butt" stroke-linejoin="round" stroke-miterlimit="10" stroke-opacity="1" fill="#4F81BD" fill-rule="evenodd" fill-opacity="1"/><path d="M1911.5 336C1911.5 326.887 1918.89 319.5 1928 319.5 1937.11 319.5 1944.5 326.887 1944.5 336 1944.5 345.113 1937.11 352.5 1928 352.5 1918.89 352.5 1911.5 345.113 1911.5 336Z" stroke="#C0504D" stroke-width="9.16667" stroke-linecap="butt" stroke-linejoin="round" stroke-miterlimit="10" stroke-opacity="1" fill="#C0504D" fill-rule="evenodd" fill-opacity="1"/><path d="M502.5 1330C502.5 1320.89 509.887 1313.5 519 1313.5 528.113 1313.5 535.5 1320.89 535.5 1330 535.5 1339.11 528.113 1346.5 519 1346.5 509.887 1346.5 502.5 1339.11 502.5 1330Z" stroke="#C0504D" stroke-width="9.16667" stroke-linecap="butt" stroke-linejoin="round" stroke-miterlimit="10" stroke-opacity="1" fill="#C0504D" fill-rule="evenodd" fill-opacity="1"/><path d="M504.5 336C504.5 326.887 511.887 319.5 521 319.5 530.113 319.5 537.5 326.887 537.5 336 537.5 345.113 530.113 352.5 521 352.5 511.887 352.5 504.5 345.113 504.5 336Z" stroke="#4F81BD" stroke-width="9.16667" stroke-linecap="butt" stroke-linejoin="round" stroke-miterlimit="10" stroke-opacity="1" fill="#4F81BD" fill-rule="evenodd" fill-opacity="1"/><path d="M0 0 1373.63 0.61893" stroke="#000000" stroke-width="3.4375" stroke-linecap="butt" stroke-linejoin="round" stroke-miterlimit="10" stroke-dasharray="13.75 10.3125" stroke-opacity="1" fill="none" fill-rule="evenodd" transform="matrix(1 0 0 -1 537.5 336.119)"/><text fill="#000000" fill-opacity="1" font-family="Arial,Arial_MSFontService,sans-serif" font-style="normal" font-variant="normal" font-weight="400" font-stretch="normal" font-size="83" text-anchor="start" direction="ltr" writing-mode="lr-tb" unicode-bidi="normal" text-decoration="none" transform="matrix(1 0 0 1 1026.67 1444)">mol % <tspan fill="#000000" fill-opacity="1" font-family="Arial,Arial_MSFontService,sans-serif" font-style="normal" font-variant="normal" font-weight="400" font-stretch="normal" font-size="83" text-anchor="start" direction="ltr" writing-mode="lr-tb" unicode-bidi="normal" text-decoration="none" x="252.083" y="0">s</tspan><tspan fill="#000000" fill-opacity="1" font-family="Arial,Arial_MSFontService,sans-serif" font-style="normal" font-variant="normal" font-weight="400" font-stretch="normal" font-size="83" text-anchor="start" direction="ltr" writing-mode="lr-tb" unicode-bidi="normal" text-decoration="none" x="293.333" y="0">team</tspan><tspan fill="#000000" fill-opacity="1" font-family="Arial,Arial_MSFontService,sans-serif" font-style="normal" font-variant="normal" font-weight="400" font-stretch="normal" font-size="92" text-anchor="start" direction="ltr" writing-mode="lr-tb" unicode-bidi="normal" text-decoration="none" x="-753.212" y="-77">G</tspan><tspan fill="#000000" fill-opacity="1" font-family="Arial,Arial_MSFontService,sans-serif" font-style="normal" font-variant="normal" font-weight="400" font-stretch="normal" font-size="61" text-anchor="start" direction="ltr" writing-mode="lr-tb" unicode-bidi="normal" text-decoration="none" x="-682.17" y="-55">g</tspan><tspan fill="#000000" fill-opacity="1" font-family="Arial,Arial_MSFontService,sans-serif" font-style="normal" font-variant="normal" font-weight="400" font-stretch="normal" font-size="92" text-anchor="start" direction="ltr" writing-mode="lr-tb" unicode-bidi="normal" text-decoration="none" x="-648.368" y="-77">=0</tspan><tspan fill="#000000" fill-opacity="1" font-family="Arial,Arial_MSFontService,sans-serif" font-style="normal" font-variant="normal" font-weight="400" font-stretch="normal" font-size="92" text-anchor="start" direction="ltr" writing-mode="lr-tb" unicode-bidi="normal" text-decoration="none" x="930.698" y="-1028">G</tspan><tspan fill="#000000" fill-opacity="1" font-family="Arial,Arial_MSFontService,sans-serif" font-style="normal" font-variant="normal" font-weight="400" font-stretch="normal" font-size="61" text-anchor="start" direction="ltr" writing-mode="lr-tb" unicode-bidi="normal" text-decoration="none" x="930.698" y="-896">g</tspan><tspan fill="#000000" fill-opacity="1" font-family="Arial,Arial_MSFontService,sans-serif" font-style="normal" font-variant="normal" font-weight="400" font-stretch="normal" font-size="92" text-anchor="start" direction="ltr" writing-mode="lr-tb" unicode-bidi="normal" text-decoration="none" x="923.791" y="-169">G</tspan><tspan fill="#000000" fill-opacity="1" font-family="Arial,Arial_MSFontService,sans-serif" font-style="normal" font-variant="normal" font-weight="400" font-stretch="normal" font-size="61" text-anchor="start" direction="ltr" writing-mode="lr-tb" unicode-bidi="normal" text-decoration="none" x="994.833" y="-147">l</tspan><tspan fill="#000000" fill-opacity="1" font-family="Arial,Arial_MSFontService,sans-serif" font-style="normal" font-variant="normal" font-weight="400" font-stretch="normal" font-size="92" text-anchor="start" direction="ltr" writing-mode="lr-tb" unicode-bidi="normal" text-decoration="none" x="-610.738" y="-1079">G</tspan><tspan fill="#000000" fill-opacity="1" font-family="Arial,Arial_MSFontService,sans-serif" font-style="normal" font-variant="normal" font-weight="400" font-stretch="normal" font-size="61" text-anchor="start" direction="ltr" writing-mode="lr-tb" unicode-bidi="normal" text-decoration="none" x="-610.738" y="-947">l</tspan></text></g></svg>